<?xml version="1.0" encoding="UTF-8"?>
<svg width="84px" height="84px" viewBox="0 0 84 84" version="1.1" xmlns="http://www.w3.org/2000/svg" xmlns:xlink="http://www.w3.org/1999/xlink">
    <!-- Generator: Sketch 60.1 (88133) - https://sketch.com -->
    <title>apetito</title>
    <desc>Created with Sketch.</desc>
    <defs>
        <polygon id="path-1" points="0.110860465 0.669232558 19.0774419 0.669232558 19.0774419 18.493186 0.110860465 18.493186"></polygon>
        <polygon id="path-3" points="0 0.669232558 18.966093 0.669232558 18.966093 18.493186 0 18.493186"></polygon>
        <polygon id="path-5" points="0.855302326 0.335372093 55.1215814 0.335372093 55.1215814 46.2093023 0.855302326 46.2093023"></polygon>
    </defs>
    <g id="Page-1" stroke="none" stroke-width="1" fill="none" fill-rule="evenodd">
        <g id="3.0-Gmail---Select-Multiple-Conversations-Copy" transform="translate(-295.000000, -632.000000)">
            <g id="apetito" transform="translate(297.000000, 634.000000)">
                <circle id="Oval" stroke="#424242" stroke-width="3" fill="#F5F5F5" cx="40" cy="40" r="40"></circle>
                <g id="Group-38" transform="translate(5.000000, 11.000000)">
                    <g id="Group-3" transform="translate(50.465116, 24.378884)">
                        <mask id="mask-2" fill="white">
                            <use xlink:href="#path-1"></use>
                        </mask>
                        <g id="Clip-2"></g>
                        <path d="M18.8822558,14.2362093 C18.7520233,14.0945814 18.581093,13.9741163 18.3694651,13.8699302 L17.9071395,13.6403953 C17.5066744,13.4596977 17.216907,13.1129535 17.041093,12.5985349 C16.8636512,12.0857442 16.7741163,11.2001628 16.7741163,9.94016279 C16.7741163,9.78225581 16.7496977,9.63248837 16.744814,9.4745814 C16.7529535,9.31830233 16.7903953,9.16853488 16.7903953,9.009 C16.7903953,7.2362093 16.2287674,5.59853488 15.2862093,4.24737209 C15.1934186,4.08783721 14.9541163,3.84527907 14.9541163,3.84527907 C13.4255116,1.92597674 11.0959767,0.669232558 8.45062791,0.669232558 C3.84527907,0.669232558 0.110860465,4.40365116 0.110860465,9.009 C0.110860465,12.4080698 2.15225581,15.3220233 5.06946512,16.621093 C5.06946512,16.621093 8.62155814,18.493186 11.8513256,18.493186 C13.8585349,18.493186 15.5645814,18.0878372 16.9694651,17.2787674 C18.3743488,16.4713256 19.0776047,15.694814 19.0776047,14.9476047 C19.0776047,14.6138837 19.0124884,14.3778372 18.8822558,14.2362093" id="Fill-1" fill="#424242" mask="url(#mask-2)"></path>
                    </g>
                    <g id="Group-6" transform="translate(0.000000, 24.378884)">
                        <mask id="mask-4" fill="white">
                            <use xlink:href="#path-3"></use>
                        </mask>
                        <g id="Clip-5"></g>
                        <path d="M0.194697674,14.2362093 C0.324930233,14.0945814 0.495860465,13.9741163 0.707488372,13.8699302 L1.16981395,13.6403953 C1.57027907,13.4596977 1.86004651,13.1129535 2.03586047,12.5985349 C2.21330233,12.0857442 2.30283721,11.2001628 2.30283721,9.94016279 C2.30283721,9.78225581 2.32725581,9.63248837 2.33213953,9.4745814 C2.324,9.31830233 2.28655814,9.16853488 2.28655814,9.009 C2.28655814,7.2362093 2.84818605,5.59853488 3.79074419,4.24737209 C3.88353488,4.08783721 4.12283721,3.84527907 4.12283721,3.84527907 C5.65144186,1.92597674 7.98097674,0.669232558 10.6263256,0.669232558 C15.2316744,0.669232558 18.966093,4.40365116 18.966093,9.009 C18.966093,12.4080698 16.9246977,15.3220233 14.0074884,16.621093 C14.0074884,16.621093 10.4553953,18.493186 7.22562791,18.493186 C5.2184186,18.493186 3.51237209,18.0878372 2.10748837,17.2787674 C0.702604651,16.4713256 -0.000651162791,15.694814 -0.000651162791,14.9476047 C-0.000651162791,14.6138837 0.0644651163,14.3778372 0.194697674,14.2362093" id="Fill-4" fill="#424242" mask="url(#mask-4)"></path>
                    </g>
                    <path d="M56.623,22.9370465 C56.623,35.1544884 46.718814,45.0603023 34.5013721,45.0603023 C22.2823023,45.0603023 12.3781163,35.1544884 12.3781163,22.9370465 C12.3781163,10.7179767 22.2823023,0.813790698 34.5013721,0.813790698 C46.718814,0.813790698 56.623,10.7179767 56.623,22.9370465" id="Fill-7" fill="#7F7E7B"></path>
                    <path d="M34.5008837,1.62790698 C22.7506512,1.62790698 13.1915814,11.1869767 13.1915814,22.9372093 C13.1915814,34.6874419 22.7506512,44.2465116 34.5008837,44.2465116 C46.2494884,44.2465116 55.8085581,34.6874419 55.8085581,22.9372093 C55.8085581,11.1869767 46.2494884,1.62790698 34.5008837,1.62790698 M34.5008837,45.8744186 C21.8536744,45.8744186 11.5636744,35.5844186 11.5636744,22.9372093 C11.5636744,10.2883721 21.8536744,0 34.5008837,0 C47.148093,0 57.4364651,10.2883721 57.4364651,22.9372093 C57.4364651,35.5844186 47.148093,45.8744186 34.5008837,45.8744186" id="Fill-9" fill="#7F7E7B"></path>
                    <path d="M9.48288372,29.2259767 L58.9582326,29.2259767 L58.9582326,25.7243488 C58.9582326,12.0613256 47.8819535,0.985046512 34.2205581,0.985046512 C20.5591628,0.985046512 9.48288372,12.0613256 9.48288372,25.7243488 L9.48288372,29.2259767 Z" id="Fill-11" fill="#424242"></path>
                    <path d="M10.2968372,28.4120233 L58.1442791,28.4120233 L58.1442791,25.7243488 C58.1442791,12.5317907 47.4114884,1.799 34.2205581,1.799 C21.028,1.799 10.2968372,12.5317907 10.2968372,25.7243488 L10.2968372,28.4120233 Z M59.772186,30.0399302 L8.66893023,30.0399302 L8.66893023,25.7243488 C8.66893023,11.633186 20.1310233,0.171093023 34.2205581,0.171093023 C48.310093,0.171093023 59.772186,11.633186 59.772186,25.7243488 L59.772186,30.0399302 Z" id="Fill-13" fill="#424242"></path>
                    <path d="M56.2303488,25.0290698 C54.3110465,14.7651163 45.3201163,6.99348837 34.5010465,6.99348837 C23.6803488,6.99348837 14.6894186,14.7651163 12.7701163,25.0290698 C10.2110465,25.1951163 8.18104651,27.3016279 8.18104651,29.9013953 C8.18104651,32.6086047 10.377093,34.8046512 13.0843023,34.8046512 L13.1445349,34.8046512 C15.6580233,44.2595349 24.2533721,51.24 34.5010465,51.24 C44.7487209,51.24 53.3440698,44.2595349 55.8575581,34.8046512 L55.9177907,34.8046512 C58.625,34.8046512 60.8194186,32.6086047 60.8194186,29.9013953 C60.8194186,27.3016279 58.7894186,25.1951163 56.2303488,25.0290698" id="Fill-15" fill="#FAFAFA"></path>
                    <g id="Group-19" transform="translate(6.511628, 5.844000)">
                        <mask id="mask-6" fill="white">
                            <use xlink:href="#path-5"></use>
                        </mask>
                        <g id="Clip-18"></g>
                        <path d="M27.9892558,1.96327907 C17.7432093,1.96327907 8.94111628,9.26932558 7.05925581,19.3346744 L6.94204651,19.9565349 L6.31204651,19.9972326 C4.16483721,20.1356047 2.4832093,21.9197907 2.4832093,24.0572326 C2.4832093,26.3118837 4.31786047,28.1465349 6.57251163,28.1465349 L7.19925581,28.1465349 L7.41902326,28.7504884 C9.89669767,38.0718837 18.3553023,44.5818837 27.9892558,44.5818837 C37.6232093,44.5818837 46.081814,38.0718837 48.5594884,28.7504884 L48.7206512,28.1465349 L49.3457674,28.1465349 C51.6606512,28.1465349 53.4936744,26.3118837 53.4936744,24.0572326 C53.4936744,21.9197907 51.8136744,20.1356047 49.6664651,19.9972326 L49.0348372,19.9565349 L48.9176279,19.3346744 C47.0373953,9.26932558 38.2336744,1.96327907 27.9892558,1.96327907 M27.9892558,46.2097907 C17.8164651,46.2097907 8.86134884,39.467 6.006,29.7402558 C3.09367442,29.4342093 0.855302326,27.0021163 0.855302326,24.0572326 C0.855302326,21.2767674 2.88367442,18.9244419 5.57623256,18.449093 C7.82925581,7.91653488 17.1604186,0.335372093 27.9892558,0.335372093 C38.818093,0.335372093 48.1492558,7.91653488 50.4022791,18.449093 C53.0948372,18.9244419 55.1215814,21.2767674 55.1215814,24.0572326 C55.1215814,27.0200233 52.8587907,29.4618837 49.9708837,29.7467674 C47.113907,39.4702558 38.1604186,46.2097907 27.9892558,46.2097907" id="Fill-17" fill="#424242" mask="url(#mask-6)"></path>
                    </g>
                    <path d="M44.4122326,30.9684884 L44.4122326,30.9684884 C45.5826977,30.9684884 46.5317674,30.0194186 46.5317674,28.8489535 L46.5317674,25.9301163 C46.5317674,24.7596512 45.5826977,23.8105814 44.4122326,23.8105814 C43.2417674,23.8105814 42.2926977,24.7596512 42.2926977,25.9301163 L42.2926977,28.8489535 C42.2926977,30.0194186 43.2417674,30.9684884 44.4122326,30.9684884" id="Fill-20" fill="#424242"></path>
                    <path d="M24.5258837,30.9684884 L24.5258837,30.9684884 C25.6963488,30.9684884 26.6454186,30.0194186 26.6454186,28.8489535 L26.6454186,25.9301163 C26.6454186,24.7596512 25.6963488,23.8105814 24.5258837,23.8105814 C23.3554186,23.8105814 22.4063488,24.7596512 22.4063488,25.9301163 L22.4063488,28.8489535 C22.4063488,30.0194186 23.3554186,30.9684884 24.5258837,30.9684884" id="Fill-22" fill="#424242"></path>
                    <path d="M12.7704419,25.0290698 C12.7704419,25.0290698 36.7820698,26.0676744 48.9816047,12.407907 L29.8569535,5.34116279 L13.8090465,15.1053488 L12.7704419,25.0290698 Z" id="Fill-24" fill="#424242"></path>
                    <path d="M13.6726279,24.2294419 C17.9344884,24.2750233 36.8637907,23.6629302 47.5493721,12.746186 L29.9435581,6.24106977 L14.5777442,15.5917674 L13.6726279,24.2294419 Z M14.1333256,25.8671163 C13.3503023,25.8671163 12.8619302,25.8475814 12.7349535,25.8426977 L11.8705349,25.8052558 L13.041,14.619907 L29.771,4.44223256 L50.3835581,12.0575814 L49.5875116,12.9496744 C38.836814,24.9896744 19.5249535,25.8671163 14.1333256,25.8671163 L14.1333256,25.8671163 Z" id="Fill-26" fill="#424242"></path>
                    <line x1="34.5008837" y1="16.5095814" x2="34.5008837" y2="29.3635349" id="Fill-28" fill="#7F7E7B"></line>
                    <path d="M34.5008837,31.6440698 C33.2425116,31.6440698 32.221814,30.6233721 32.221814,29.365 L32.221814,16.5094186 C32.221814,15.2510465 33.2425116,14.2303488 34.5008837,14.2303488 C35.7592558,14.2303488 36.7799535,15.2510465 36.7799535,16.5094186 L36.7799535,29.365 C36.7799535,30.6233721 35.7592558,31.6440698 34.5008837,31.6440698" id="Fill-30" fill="#424242"></path>
                    <line x1="25.6030698" y1="38.4895814" x2="44.0179535" y2="38.4895814" id="Fill-32" fill="#FAFAFA"></line>
                    <polygon id="Fill-34" fill="#424242" points="25.602093 39.3035349 44.0169767 39.3035349 44.0169767 37.6756279 25.602093 37.6756279"></polygon>
                    <path d="M40.8176512,34.5883023 L40.8176512,34.5883023 C42.5839302,34.5883023 44.0164884,36.0208605 44.0164884,37.7887674 L44.0164884,38.4887674 L37.618814,38.4887674 L37.618814,37.7887674 C37.618814,36.0208605 39.0513721,34.5883023 40.8176512,34.5883023" id="Fill-36" fill="#FAFAFA"></path>
                    <path d="M38.4355349,37.6756279 L43.2004186,37.6756279 C43.141814,36.4123721 42.0950698,35.4030698 40.8171628,35.4030698 C39.5408837,35.4030698 38.4957674,36.4123721 38.4355349,37.6756279 L38.4355349,37.6756279 Z M44.8315814,39.3035349 L36.806,39.3035349 L36.806,37.7879535 C36.806,35.5756279 38.6048372,33.7751628 40.8171628,33.7751628 C43.0311163,33.7751628 44.8315814,35.5756279 44.8315814,37.7879535 L44.8315814,39.3035349 Z" id="Fill-37" fill="#424242"></path>
                </g>
                <line x1="9.5" y1="64.5" x2="64.5" y2="9.5" id="Line" stroke="#424242" stroke-width="3" stroke-linecap="square"></line>
            </g>
        </g>
    </g>
</svg>