<svg width="24" height="24" viewBox="0 0 24 24" fill="none" xmlns="http://www.w3.org/2000/svg">
<path fill-rule="evenodd" clip-rule="evenodd" d="M10.7071 18.7071C11.0976 18.3166 11.0976 17.6834 10.7071 17.2929L6.41421 13H20C20.5523 13 21 12.5523 21 12C21 11.4477 20.5523 11 20 11H6.41421L10.7071 6.70711C11.0976 6.31658 11.0976 5.68342 10.7071 5.29289C10.3166 4.90237 9.68342 4.90237 9.29289 5.29289L3.29289 11.2929C3.10983 11.476 3.01258 11.7123 3.00114 11.952C3.00038 11.968 3 11.984 3 12M3.07588 12.3828C3.12468 12.5007 3.19702 12.6112 3.29289 12.7071L9.29289 18.7071C9.68342 19.0976 10.3166 19.0976 10.7071 18.7071M3.07588 12.3828C3.0281 12.2676 3.00124 12.1415 3.00004 12.0092L3.07588 12.3828Z" fill="black"/>
<mask id="mask0" mask-type="alpha" maskUnits="userSpaceOnUse" x="3" y="5" width="18" height="14">
<path fill-rule="evenodd" clip-rule="evenodd" d="M10.7071 18.7071C11.0976 18.3166 11.0976 17.6834 10.7071 17.2929L6.41421 13H20C20.5523 13 21 12.5523 21 12C21 11.4477 20.5523 11 20 11H6.41421L10.7071 6.70711C11.0976 6.31658 11.0976 5.68342 10.7071 5.29289C10.3166 4.90237 9.68342 4.90237 9.29289 5.29289L3.29289 11.2929C3.10983 11.476 3.01258 11.7123 3.00114 11.952C3.00038 11.968 3 11.984 3 12M3.07588 12.3828C3.12468 12.5007 3.19702 12.6112 3.29289 12.7071L9.29289 18.7071C9.68342 19.0976 10.3166 19.0976 10.7071 18.7071M3.07588 12.3828C3.0281 12.2676 3.00124 12.1415 3.00004 12.0092L3.07588 12.3828Z" fill="white"/>
</mask>
<g mask="url(#mask0)">
<rect width="24" height="24" transform="matrix(-1 0 0 1 24 0)" fill="black"/>
</g>
</svg>
