<?xml version="1.0" encoding="UTF-8"?>
<svg width="80px" height="80px" viewBox="0 0 80 80" version="1.1" xmlns="http://www.w3.org/2000/svg" xmlns:xlink="http://www.w3.org/1999/xlink">
    <!-- Generator: Sketch 60.1 (88133) - https://sketch.com -->
    <title>dolor</title>
    <desc>Created with Sketch.</desc>
    <defs>
        <polygon id="path-1" points="0 0.66955814 18.9665814 0.66955814 18.9665814 18.4935116 0 18.4935116"></polygon>
        <polygon id="path-3" points="0.854813953 0.402364341 55.121093 0.402364341 55.121093 46.275969 0.854813953 46.275969"></polygon>
    </defs>
    <g id="Page-1" stroke="none" stroke-width="1" fill="none" fill-rule="evenodd">
        <g id="3.0-Gmail---Select-Multiple-Conversations-Copy" transform="translate(-465.000000, -634.000000)">
            <g id="dolor" transform="translate(465.000000, 634.000000)">
                <circle id="Oval-Copy" fill="#F5F5F5" cx="40" cy="40" r="40"></circle>
                <g id="Group-41" transform="translate(5.000000, 8.000000)">
                    <path d="M69.3470465,49.9912326 C69.216814,49.8496047 69.0458837,49.7275116 68.8342558,49.6249535 L68.3735581,49.3937907 C67.9714651,49.2147209 67.6833256,48.8679767 67.5058837,48.3535581 C67.3284419,47.8407674 67.2405349,46.9535581 67.2405349,45.695186 C67.2405349,45.5372791 67.2144884,45.3858837 67.2096047,45.2296047 C67.2177442,45.0716977 67.255186,44.9235581 67.255186,44.7640233 C67.255186,42.9912326 66.695186,41.3535581 65.751,40.0023953 C65.6582093,39.8412326 65.418907,39.6003023 65.418907,39.6003023 C63.8903023,37.6793721 61.5607674,36.4242558 58.9154186,36.4242558 C54.3100698,36.4242558 50.5756512,40.1570465 50.5756512,44.7640233 C50.5756512,48.163093 52.6170465,51.0770465 55.5342558,52.3744884 C55.5342558,52.3744884 59.0879767,54.2482093 62.3161163,54.2482093 C64.3233256,54.2482093 66.0293721,53.8428605 67.4342558,53.0337907 C68.8391395,52.2263488 69.5423953,51.4482093 69.5423953,50.7026279 C69.5423953,50.368907 69.4772791,50.1328605 69.3470465,49.9912326" id="Fill-1" fill="#424242"></path>
                    <g id="Group-5" transform="translate(0.000000, 35.754698)">
                        <mask id="mask-2" fill="white">
                            <use xlink:href="#path-1"></use>
                        </mask>
                        <g id="Clip-4"></g>
                        <path d="M0.195186047,14.2365349 C0.325418605,14.094907 0.496348837,13.972814 0.707976744,13.8702558 L1.16867442,13.639093 C1.57076744,13.4600233 1.85890698,13.1132791 2.03634884,12.5988605 C2.2137907,12.0860698 2.30169767,11.1988605 2.30169767,9.94048837 C2.30169767,9.7825814 2.32774419,9.63118605 2.33262791,9.47490698 C2.32448837,9.317 2.28704651,9.16886047 2.28704651,9.00932558 C2.28704651,7.23653488 2.84704651,5.59886047 3.79123256,4.24769767 C3.88402326,4.08653488 4.12332558,3.84560465 4.12332558,3.84560465 C5.65193023,1.92467442 7.98146512,0.66955814 10.626814,0.66955814 C15.2321628,0.66955814 18.9665814,4.40234884 18.9665814,9.00932558 C18.9665814,12.4083953 16.925186,15.3223488 14.0079767,16.6197907 C14.0079767,16.6197907 10.4542558,18.4935116 7.22611628,18.4935116 C5.21890698,18.4935116 3.51286047,18.0881628 2.10797674,17.279093 C0.703093023,16.4716512 -0.000162790698,15.6935116 -0.000162790698,14.9479302 C-0.000162790698,14.6142093 0.0649534884,14.3781628 0.195186047,14.2365349" id="Fill-3" fill="#424242" mask="url(#mask-2)"></path>
                    </g>
                    <path d="M56.6234884,34.3123721 C56.6234884,46.529814 46.7193023,56.4356279 34.5002326,56.4356279 C22.2827907,56.4356279 12.3786047,46.529814 12.3786047,34.3123721 C12.3786047,22.0949302 22.2827907,12.1907442 34.5002326,12.1907442 C46.7193023,12.1907442 56.6234884,22.0949302 56.6234884,34.3123721" id="Fill-6" fill="#424242"></path>
                    <path d="M34.5003953,13.0040465 C22.7501628,13.0040465 13.191093,22.5631163 13.191093,34.3133488 C13.191093,46.0635814 22.7501628,55.6226512 34.5003953,55.6226512 C46.249,55.6226512 55.8080698,46.0635814 55.8080698,34.3133488 C55.8080698,22.5631163 46.249,13.0040465 34.5003953,13.0040465 M34.5003953,57.2505581 C21.853186,57.2505581 11.563186,46.9605581 11.563186,34.3133488 C11.563186,21.6645116 21.853186,11.3761395 34.5003953,11.3761395 C47.1476047,11.3761395 57.4359767,21.6645116 57.4359767,34.3133488 C57.4359767,46.9605581 47.1476047,57.2505581 34.5003953,57.2505581" id="Fill-8" fill="#424242"></path>
                    <path d="M9.48337209,40.6014651 L58.9587209,40.6014651 L58.9587209,37.0998372 C58.9587209,23.436814 47.8824419,12.3621628 34.2210465,12.3621628 C20.5580233,12.3621628 9.48337209,23.436814 9.48337209,37.0998372 L9.48337209,40.6014651 Z" id="Fill-10" fill="#424242"></path>
                    <path d="M10.2965116,39.7883256 L58.1439535,39.7883256 L58.1439535,37.1006512 C58.1439535,23.908093 47.4111628,13.1753023 34.2202326,13.1753023 C21.0276744,13.1753023 10.2965116,23.908093 10.2965116,37.1006512 L10.2965116,39.7883256 Z M59.7718605,41.4162326 L8.66860465,41.4162326 L8.66860465,37.1006512 C8.66860465,23.0094884 20.1306977,11.5473953 34.2202326,11.5473953 C48.3097674,11.5473953 59.7718605,23.0094884 59.7718605,37.1006512 L59.7718605,41.4162326 Z" id="Fill-12" fill="#424242"></path>
                    <path d="M56.2308372,36.4060233 C54.3115349,26.1420698 45.3206047,18.368814 34.499907,18.368814 C23.6808372,18.368814 14.689907,26.1420698 12.7706047,36.4060233 C10.2115349,36.5704419 8.18153488,38.6769535 8.18153488,41.2767209 C8.18153488,43.9855581 10.3775814,46.1799767 13.0847907,46.1799767 L13.1433953,46.1799767 C15.6585116,55.6364884 24.2522326,62.6153256 34.499907,62.6153256 C44.7492093,62.6153256 53.3445581,55.6364884 55.8580465,46.1799767 L55.9166512,46.1799767 C58.6254884,46.1799767 60.819907,43.9855581 60.819907,41.2767209 C60.819907,38.6769535 58.789907,36.5704419 56.2308372,36.4060233" id="Fill-14" fill="#F9FAFB"></path>
                    <g id="Group-18" transform="translate(6.511628, 17.153147)">
                        <mask id="mask-4" fill="white">
                            <use xlink:href="#path-3"></use>
                        </mask>
                        <g id="Clip-17"></g>
                        <path d="M27.9887674,2.03027132 C17.7427209,2.03027132 8.94062791,9.33631783 7.05876744,19.4016667 L6.94155814,20.0235271 L6.31155814,20.0642248 C4.16434884,20.2025969 2.48272093,21.9867829 2.48272093,24.1242248 C2.48272093,26.378876 4.31737209,28.2135271 6.57202326,28.2135271 L7.19876744,28.2135271 L7.41853488,28.8174806 C9.8962093,38.138876 18.354814,44.648876 27.9887674,44.648876 C37.6227209,44.648876 46.0813256,38.138876 48.559,28.8174806 L48.7201628,28.2135271 L49.3452791,28.2135271 C51.6601628,28.2135271 53.493186,26.378876 53.493186,24.1242248 C53.493186,21.9867829 51.813186,20.2025969 49.6659767,20.0642248 L49.0343488,20.0235271 L48.9171395,19.4016667 C47.036907,9.33631783 38.233186,2.03027132 27.9887674,2.03027132 M27.9887674,46.2767829 C17.8159767,46.2767829 8.86086047,39.5339922 6.00551163,29.8072481 C3.09318605,29.5012016 0.854813953,27.0691085 0.854813953,24.1242248 C0.854813953,21.3437597 2.88318605,18.9914341 5.57574419,18.5160853 C7.82876744,7.98352713 17.1599302,0.402364341 27.9887674,0.402364341 C38.8176047,0.402364341 48.1487674,7.98352713 50.4017907,18.5160853 C53.0943488,18.9914341 55.121093,21.3437597 55.121093,24.1242248 C55.121093,27.0870155 52.8583023,29.528876 49.9703953,29.8137597 C47.1134186,39.5372481 38.1599302,46.2767829 27.9887674,46.2767829" id="Fill-16" fill="#424242" mask="url(#mask-4)"></path>
                    </g>
                    <path d="M30.6150698,50.1709535 C32.9283256,47.8576977 36.6920465,47.8576977 39.0053023,50.1709535 C39.1664651,50.3337442 39.3797209,50.4135116 39.5913488,50.4135116 C39.8046047,50.4135116 40.0162326,50.3337442 40.1790233,50.1709535 C40.5013488,49.847 40.5013488,49.322814 40.1790233,48.9972326 C37.2178605,46.0376977 32.4025116,46.0376977 29.4413488,48.9972326 C29.1190233,49.322814 29.1190233,49.847 29.4413488,50.1709535 C29.7669302,50.494907 30.2911163,50.494907 30.6150698,50.1709535" id="Fill-19" fill="#424242"></path>
                    <path d="M20.6394186,41.797 C20.7484884,42.1535116 21.0773256,42.3830465 21.4322093,42.3830465 C21.5136047,42.3830465 21.595,42.3716512 21.6763953,42.3456047 L26.0603488,40.9976977 C26.3387209,40.9114186 26.5519767,40.6867674 26.6219767,40.4051395 C26.6919767,40.1218837 26.6089535,39.8239767 26.4038372,39.6172326 L23.4524419,36.6674651 C23.1284884,36.3418837 22.6026744,36.3418837 22.2787209,36.6674651 C21.9547674,36.9897907 21.9547674,37.5156047 22.2787209,37.8395581 L24.2566279,39.8158372 L21.1880233,40.7600233 C20.7501163,40.8951395 20.5043023,41.359093 20.6394186,41.797" id="Fill-21" fill="#424242"></path>
                    <path d="M47.3727442,42.3827209 C47.7276279,42.3827209 48.0548372,42.153186 48.1655349,41.7966744 C48.3006512,41.3587674 48.0532093,40.894814 47.6169302,40.7596977 L44.5499535,39.8171395 L46.5262326,37.8392326 C46.850186,37.5152791 46.850186,36.9894651 46.5262326,36.6671395 C46.2022791,36.343186 45.6764651,36.343186 45.3525116,36.6671395 L42.4011163,39.616907 C42.196,39.8236512 42.1129767,40.1215581 42.1829767,40.404814 C42.2529767,40.6864419 42.4662326,40.911093 42.7446047,40.9973721 L47.1285581,42.346907 C47.2099535,42.3713256 47.2913488,42.3827209 47.3727442,42.3827209" id="Fill-23" fill="#424242"></path>
                    <path d="M12.7709302,36.4060233 C12.7709302,36.4060233 36.7825581,37.443 48.982093,23.7832326 L29.8574419,16.7181163 L13.8095349,26.4806744 L12.7709302,36.4060233 Z" id="Fill-25" fill="#424242"></path>
                    <path d="M13.6723023,35.6055814 C17.9341628,35.6511628 36.8634651,35.0390698 47.5490465,24.1223256 L29.9432326,17.6172093 L14.5774186,26.967907 L13.6723023,35.6055814 Z M14.133,37.2432558 C13.3499767,37.2432558 12.8616047,37.2237209 12.7346279,37.2188372 L11.8702093,37.1813953 L13.0406744,25.9960465 L29.7706744,15.8183721 L50.3832326,23.4337209 L49.587186,24.325814 C38.8364884,36.365814 19.5246279,37.2432558 14.133,37.2432558 L14.133,37.2432558 Z" id="Fill-27" fill="#424242"></path>
                    <line x1="34.5003953" y1="27.8857209" x2="34.5003953" y2="40.7396744" id="Fill-29" fill="#424242"></line>
                    <path d="M34.5003953,43.0202093 C33.2420233,43.0202093 32.2213256,41.9995116 32.2213256,40.7411395 L32.2213256,27.8855581 C32.2213256,26.627186 33.2420233,25.6064884 34.5003953,25.6064884 C35.7587674,25.6064884 36.7794651,26.627186 36.7794651,27.8855581 L36.7794651,40.7411395 C36.7794651,41.9995116 35.7587674,43.0202093 34.5003953,43.0202093" id="Fill-31" fill="#424242"></path>
                    <path d="M48.9146977,30.7075349 C48.6672558,30.9077674 48.4442326,30.8035814 48.3335349,30.722186 C48.2228372,30.6424186 48.0535349,30.4633488 48.1658605,30.1654419 L51.9588837,20.0968372 C52.0874884,19.7582326 52.0402791,19.3773023 51.8335349,19.0793953 C51.6284186,18.7814884 51.288186,18.6024186 50.9251628,18.6024186 L45.7874884,18.6024186 C45.5433023,18.6024186 45.4146977,18.4542791 45.3577209,18.3647442 C45.304,18.2768372 45.2258605,18.0945116 45.3333023,17.8763721 L53.3491163,1.40846512 C53.5249302,1.04706977 53.8993488,0.81427907 54.299814,0.81427907 L64.9642326,0.81427907 C65.5128372,0.81427907 65.7863256,1.18055814 65.8774884,1.33846512 C65.9702791,1.498 66.1542326,1.91637209 65.884,2.39334884 L59.1770233,14.2184651 C58.9833023,14.5619535 58.9849302,14.9803256 59.1835349,15.3205581 C59.3805116,15.6607907 59.7451628,15.8691628 60.1391163,15.8691628 L65.7830698,15.8691628 C66.1346977,15.8691628 66.2633023,16.1247442 66.3007442,16.2354419 C66.339814,16.3461395 66.4016744,16.6261395 66.128186,16.845907 L48.9146977,30.7075349 Z" id="Fill-33" fill="#FEFEFE"></path>
                    <path d="M46.2805814,17.7884651 L50.925,17.7884651 C51.555,17.7884651 52.1459302,18.0977674 52.5040698,18.6170698 C52.8622093,19.1331163 52.9436047,19.7940465 52.7222093,20.3849767 L49.3605814,29.3042791 L65.0324419,16.6831163 L60.1389535,16.6831163 C59.4584884,16.6831163 58.8236047,16.3184651 58.4801163,15.7291628 C58.1382558,15.1431163 58.1333721,14.4089302 58.4687209,13.818 L65.1756977,1.99125581 C65.1968605,1.95544186 65.2456977,1.8707907 65.1740698,1.74869767 C65.1040698,1.62823256 65.0063953,1.62823256 64.9640698,1.62823256 L54.3012791,1.62823256 C54.2117442,1.62823256 54.1205814,1.6835814 54.0815116,1.76497674 L46.2805814,17.7884651 Z M48.6166279,31.6354419 C48.352907,31.6354419 48.089186,31.5507907 47.8547674,31.3814884 C47.3696512,31.0282326 47.1938372,30.4389302 47.4038372,29.8789302 L51.1984884,19.8103256 C51.2326744,19.7207907 51.2196512,19.6214884 51.1643023,19.5433488 C51.1105814,19.4635814 51.0210465,19.4163721 50.925,19.4163721 L45.7873256,19.4163721 C45.3266279,19.4163721 44.9066279,19.1819535 44.6656977,18.7912558 C44.4263953,18.4119535 44.4003488,17.9333488 44.6005814,17.5198605 L52.6180233,1.05195349 C52.9289535,0.413813953 53.5898837,0.000325581395 54.3012791,0.000325581395 L64.9640698,0.000325581395 C65.6380233,0.000325581395 66.2419767,0.347069767 66.5822093,0.929860465 C66.920814,1.51102326 66.9256977,2.20939535 66.5936047,2.79544186 L59.885,14.6205581 C59.8345349,14.710093 59.8361628,14.8207907 59.8866279,14.9103256 C59.9387209,14.9998605 60.0347674,15.0552093 60.1389535,15.0552093 L65.7845349,15.0552093 C66.3787209,15.0552093 66.8719767,15.4052093 67.0705814,15.9652093 C67.2675581,16.5235814 67.1047674,17.1047442 66.639186,17.4791628 L49.4256977,31.3424186 C49.1831395,31.5377674 48.8998837,31.6354419 48.6166279,31.6354419 L48.6166279,31.6354419 Z" id="Fill-35" fill="#424242"></path>
                    <path d="M7.88883721,14.8657209 L3.61395349,15.8522326 C3.26069767,15.9336279 2.96930233,16.1843256 2.83581395,16.5213023 C2.70069767,16.8582791 2.74139535,17.2392093 2.94325581,17.542 L7.43790698,24.2847907 C7.65116279,24.6038605 8.00116279,24.7764186 8.35767442,24.7764186 C8.56767442,24.7764186 8.78093023,24.716186 8.96976744,24.5908372 C9.47767442,24.2522326 9.61604651,23.5652558 9.27744186,23.0573488 L5.67,17.646186 L9.95465116,16.6580465 C10.307907,16.5766512 10.6009302,16.3243256 10.7344186,15.9857209 C10.867907,15.6471163 10.8255814,15.2645581 10.622093,14.9633953 L4.40186047,5.74944186 C4.06162791,5.24316279 3.37465116,5.10967442 2.86837209,5.45153488 C2.36209302,5.79339535 2.22860465,6.48037209 2.57046512,6.98665116 L7.88883721,14.8657209 Z" id="Fill-37" fill="#424242"></path>
                    <path d="M16.2691395,15.0270465 C16.4482093,15.4454186 16.856814,15.6961163 17.2849535,15.6961163 C17.4298372,15.6961163 17.5779767,15.666814 17.7212326,15.6049535 C18.2812326,15.3640233 18.5416977,14.7144884 18.2991395,14.1528605 L16.5165814,10.0082093 L19.4370465,9.87797674 C19.8000698,9.86169767 20.1337907,9.66634884 20.3258837,9.35867442 C20.5179767,9.04937209 20.5456512,8.66355814 20.4007674,8.33146512 L18.1184419,3.10913953 C17.8742558,2.54913953 17.2214651,2.29355814 16.663093,2.53937209 C16.103093,2.78355814 15.8475116,3.43472093 16.0933256,3.99309302 L17.7293721,7.74053488 L14.8203023,7.87239535 C14.4572791,7.88867442 14.126814,8.08239535 13.933093,8.39006977 C13.741,8.69774419 13.7116977,9.08030233 13.8549535,9.41402326 L16.2691395,15.0270465 Z" id="Fill-39" fill="#424242"></path>
                </g>
            </g>
        </g>
    </g>
</svg>