<?xml version="1.0" encoding="UTF-8"?>
<svg width="445px" height="444px" viewBox="0 0 445 444" version="1.1" xmlns="http://www.w3.org/2000/svg" xmlns:xlink="http://www.w3.org/1999/xlink">
    <!-- Generator: Sketch 60.1 (88133) - https://sketch.com -->
    <title>Group 18 Copy</title>
    <desc>Created with Sketch.</desc>
    <defs>
        <polygon id="path-1" points="0.79682376 0.374441766 22.9145878 0.374441766 22.9145878 11.4552947 0.79682376 11.4552947"></polygon>
        <polygon id="path-3" points="0.79682376 0.158342404 22.9145878 0.158342404 22.9145878 11.233279 0.79682376 11.233279"></polygon>
        <polygon id="path-5" points="0 0.0642831597 11.0545312 0.0642831597 11.0545312 22.2222655 0 22.2222655"></polygon>
    </defs>
    <g id="Móvil" stroke="none" stroke-width="1" fill="none" fill-rule="evenodd">
        <g id="Group-18-Copy">
            <path d="M444.209632,221.714336 C444.209632,344.16476 344.770897,443.428672 222.104816,443.428672 C99.4387344,443.428672 -4.26325641e-14,344.16476 -4.26325641e-14,221.714336 C-4.26325641e-14,99.2639124 99.4387344,-4.26325641e-14 222.104816,-4.26325641e-14 C344.770897,-4.26325641e-14 444.209632,99.2639124 444.209632,221.714336" id="Fill-1" fill="#FB731D"></path>
            <g id="Group-34" transform="translate(53.957396, 56.070777)">
                <g id="Group-3" transform="translate(155.386849, 323.907549)">
                    <mask id="mask-2" fill="white">
                        <use xlink:href="#path-1"></use>
                    </mask>
                    <g id="Clip-2"></g>
                    <path d="M0.79682376,0.374441766 C0.79682376,6.4962191 5.75366423,11.4565402 11.8572597,11.4565402 C17.9577473,11.4565402 22.9145878,6.4962191 22.9145878,0.374441766 L0.79682376,0.374441766 Z" id="Fill-1" fill="#FFD7BE" mask="url(#mask-2)"></path>
                </g>
                <path d="M254.911815,297.776501 C257.960505,303.082457 256.151802,309.855023 250.865541,312.906571 C245.573065,315.967459 238.813737,314.158328 235.761939,308.861714 L254.911815,297.776501 Z" id="Fill-4" fill="#FFD7BE"></path>
                <path d="M308.034849,236.442582 C313.324217,239.509699 315.129812,246.282265 312.078015,251.572652 C309.029325,256.875493 302.266889,258.687739 296.980628,255.639305 L308.034849,236.442582 Z" id="Fill-6" fill="#FFD7BE"></path>
                <path d="M323.424673,156.720899 C329.534484,156.711571 334.485109,161.675005 334.485109,167.793669 C334.485109,173.906105 329.534484,178.878881 323.424673,178.878881 L323.424673,156.720899 Z" id="Fill-8" fill="#FFD7BE"></path>
                <path d="M296.975656,79.9564399 C302.261917,76.8986651 309.021245,78.7140243 312.073042,84.0137521 C315.127948,89.3072524 313.322353,96.0860465 308.032984,99.1438213 L296.975656,79.9564399 Z" id="Fill-10" fill="#FFD7BE"></path>
                <path d="M235.761629,26.7324747 C238.813426,21.4358607 245.57897,19.6173877 250.86523,22.6782763 C256.154599,25.7360512 257.963301,32.5117315 254.914612,37.8083455 L235.761629,26.7324747 Z" id="Fill-12" fill="#FFD7BE"></path>
                <g id="Group-16" transform="translate(155.386849, 0.069888)">
                    <mask id="mask-4" fill="white">
                        <use xlink:href="#path-3"></use>
                    </mask>
                    <g id="Clip-15"></g>
                    <path d="M0.79682376,11.233279 C0.79682376,5.11772936 5.75366423,0.157408257 11.8572597,0.157408257 C17.9546396,0.157408257 22.9145878,5.11772936 22.9145878,11.233279 L0.79682376,11.233279 Z" id="Fill-14" fill="#FFD7BE" mask="url(#mask-4)"></path>
                </g>
                <path d="M79.5736052,37.8086569 C76.5218075,32.508929 78.3367259,25.7394764 83.6229865,22.6785877 C88.9061394,19.617699 95.6747905,21.4361721 98.7234805,26.7327861 L79.5736052,37.8086569 Z" id="Fill-17" fill="#FFD7BE"></path>
                <path d="M26.4536787,99.1441327 C21.1705258,96.0863579 19.3587152,89.3075638 22.4042974,84.0140635 C25.4592028,78.7112218 32.2216385,76.8989764 37.5078991,79.9536375 L26.4536787,99.1441327 Z" id="Fill-19" fill="#FFD7BE"></path>
                <g id="Group-23" transform="translate(0.000000, 156.646665)">
                    <mask id="mask-6" fill="white">
                        <use xlink:href="#path-5"></use>
                    </mask>
                    <g id="Clip-22"></g>
                    <path d="M11.0545312,22.2222655 C4.95404351,22.2315938 -0.00279696328,17.2588174 -0.00279696328,11.1494954 C-0.00279696328,5.03394573 4.95404351,0.0642831597 11.0545312,0.0642831597 L11.0545312,22.2222655 Z" id="Fill-21" fill="#FFD7BE" mask="url(#mask-6)"></path>
                </g>
                <path d="M37.503859,255.63806 C32.2207062,258.689607 25.4582705,256.877362 22.4064728,251.57452 C19.3577828,246.284133 21.1695935,239.499112 26.4527464,236.441337 L37.503859,255.63806 Z" id="Fill-24" fill="#FFD7BE"></path>
                <path d="M79.5704975,297.776501 C76.5218075,303.082457 78.3367259,309.855023 83.6229865,312.912798 C88.9061394,315.970573 95.6716828,314.161441 98.717265,308.867941 L79.5704975,297.776501 Z" id="Fill-26" fill="#FFD7BE"></path>
                <path d="M288.198785,223.502465 C288.062045,223.42462 287.912873,223.368571 287.773025,223.293839 C284.618672,229.991674 280.91425,236.371899 276.731236,242.397147 C276.858653,242.478107 276.976747,242.574635 277.107272,242.652481 C255.104494,274.304499 219.732232,295.942459 179.244635,299.308503 C179.241527,299.134128 179.219773,298.962868 179.21045,298.788494 C175.577505,299.087421 171.916591,299.280478 168.205953,299.280478 C164.492207,299.280478 160.825078,299.087421 157.189025,298.788494 C157.179702,298.962868 157.15484,299.137242 157.151733,299.311616 C116.667243,295.942459 81.2949807,274.304499 59.292203,242.655595 C59.4258356,242.574635 59.5470374,242.478107 59.6775623,242.39092 C55.4945484,236.368785 51.7932336,229.98856 48.6388806,223.293839 C48.4959247,223.368571 48.3405379,223.427734 48.2006897,223.505579 C40.0863885,206.314159 35.5242306,187.114322 35.5242306,166.877582 C35.5242306,146.625273 40.0863885,127.431664 48.2006897,110.23713 C48.3405379,110.318089 48.492817,110.374138 48.6357729,110.44887 C51.7870182,103.751035 55.4883329,97.3708101 59.6744546,91.3486752 C59.5439297,91.2614881 59.4196202,91.1649596 59.2859875,91.0840002 C81.2949807,59.4319826 116.667243,37.7971357 157.148625,34.43732 L158.640339,34.8327756 C161.800907,34.6054665 164.986337,34.4497753 168.205953,34.4497753 C171.916591,34.4497753 175.580613,34.6428324 179.21045,34.9417594 C179.219773,34.773613 179.241527,34.6023527 179.244635,34.4342062 C219.73534,37.7971357 255.104494,59.4319826 277.104164,91.0840002 C276.973639,91.1618457 276.858653,91.2552605 276.734344,91.3362199 C280.91425,97.3614687 284.62178,103.741693 287.773025,110.436414 C287.912873,110.36791 288.058937,110.308747 288.195678,110.230902 C296.309979,127.422322 300.872138,146.619045 300.872138,166.868241 C300.875244,187.111208 296.319302,206.311045 288.198785,223.502465 M321.930162,196.661305 L313.042035,194.282344 C314.707782,185.398605 315.618349,176.234622 315.618349,166.871354 C315.618349,157.498745 314.707782,148.337876 313.042035,139.451023 L321.923947,137.06272 C327.828647,135.487126 331.327959,129.402714 329.746121,123.502018 C328.170498,117.588867 322.09798,114.079588 316.205711,115.664524 L307.33623,118.043485 C301.192234,100.459723 291.819299,84.411076 279.935313,70.5732437 L286.455345,64.0404416 C290.778207,59.7153405 290.778207,52.696782 286.458453,48.3747947 C282.151129,44.043466 275.143182,44.043466 270.817212,48.3747947 L264.29718,54.9107106 C250.489505,43.0065627 234.469121,33.6183844 216.922838,27.462355 L219.300257,18.5723884 C220.885202,12.6623511 217.379675,6.58728114 211.484298,5.00857254 C205.588921,3.42052247 199.528834,6.92668792 197.943888,12.8398391 L195.563362,21.7453747 C186.700096,20.0763653 177.554026,19.1640149 168.209061,19.1640149 C158.851665,19.1640149 149.708702,20.0763653 140.839221,21.7484886 L138.452479,12.8429529 C136.879964,6.93291557 130.813662,3.42363629 124.915177,5.00857254 C119.0198,6.58416731 115.514273,12.6685788 117.096111,18.5723884 L119.476637,27.4654688 C101.927247,33.624612 85.9099701,43.0127904 72.1022948,54.9200521 L65.5791549,48.3841362 C61.2656159,44.0528075 54.2607768,44.0528075 49.9472379,48.3810224 C45.6243757,52.7030096 45.6243757,59.724682 49.9410224,64.0497831 L56.4703778,70.5888128 C44.5832839,84.4204175 35.2165646,100.469065 29.0725686,118.049713 L20.2030873,115.670752 C14.3014948,114.088929 8.23519221,117.588867 6.6626773,123.505132 C5.08083918,129.408942 8.58015101,135.490239 14.4786358,137.07829 L23.3667635,139.463478 C21.7041243,148.347217 20.7904496,157.501859 20.7904496,166.877582 C20.7904496,176.243964 21.7041243,185.404833 23.3667635,194.294799 L14.4817435,196.673761 C8.58015101,198.255583 5.07773144,204.327539 6.6626773,210.24069 C8.23519221,216.141386 14.3046025,219.656893 20.2030873,218.078185 L29.0725686,215.699223 C35.2227801,233.276758 44.5894993,249.322291 56.4734855,263.15701 L49.9503456,269.702267 C45.621268,274.024254 45.6243757,281.042813 49.9503456,285.358573 C54.2607768,289.683674 61.2687237,289.693015 65.5853703,285.3648 L72.111618,278.82577 C85.9161856,290.726805 101.930354,300.111869 119.48596,306.27724 L117.108542,315.160979 C115.523596,321.077244 119.022908,327.1492 124.9245,328.724795 C130.813662,330.312845 136.889287,326.797338 138.471126,320.899756 L140.851652,311.984879 C149.721133,313.660116 158.85788,314.569352 168.212168,314.569352 C177.563349,314.569352 186.709419,313.660116 195.572685,311.984879 L197.956319,320.893528 C199.538157,326.797338 205.598244,330.303503 211.493621,328.724795 C217.395214,327.146086 220.894526,321.071016 219.312687,315.160979 L216.935269,306.271012 C234.484659,300.111869 250.508151,290.726805 264.312719,278.822657 L270.829643,285.349231 C275.152505,289.683674 282.157345,289.683674 286.467776,285.358573 C290.784422,281.033471 290.784422,274.018027 286.467776,269.686698 L279.941528,263.15701 C291.83173,249.322291 301.204665,233.267416 307.345553,215.686768 L316.215034,218.065729 C322.104196,219.653779 328.173606,216.141386 329.749229,210.24069 C331.331067,204.324425 327.828647,198.246242 321.930162,196.661305" id="Fill-28" fill="#FFC29B"></path>
                <path d="M89.1942266,212.943178 L167.241933,258.093621 L245.292747,212.943178 L245.292747,122.645405 L167.241933,77.4949623 L89.1942266,122.645405 L89.1942266,212.943178 Z M167.241933,275.020367 C165.890067,275.020367 164.531986,274.668505 163.323077,273.967894 L77.4345499,224.283724 C75.010515,222.879389 73.5156935,220.285574 73.5156935,217.480019 L73.5156935,118.108564 C73.5156935,115.303009 75.010515,112.712308 77.4345499,111.307973 L163.323077,61.6238031 C165.747111,60.2194686 168.739862,60.2194686 171.160789,61.6238031 L257.049316,111.307973 C259.476459,112.712308 260.968172,115.303009 260.968172,118.108564 L260.968172,217.480019 C260.968172,220.285574 259.476459,222.879389 257.049316,224.283724 L171.160789,273.967894 C169.948772,274.668505 168.596906,275.020367 167.241933,275.020367 L167.241933,275.020367 Z" id="Fill-30" fill="#FFC29B"></path>
                <path d="M167.242865,120.664079 C141.305692,120.664079 120.201051,141.806942 120.201051,167.794914 C120.201051,193.782887 141.305692,214.925749 167.242865,214.925749 C193.180038,214.925749 214.281572,193.782887 214.281572,167.794914 C214.281572,141.806942 193.180038,120.664079 167.242865,120.664079 M167.242865,219.415883 C138.831934,219.415883 115.722802,196.258377 115.722802,167.794914 C115.722802,139.334566 138.831934,116.17706 167.242865,116.17706 C195.650689,116.17706 218.759821,139.334566 218.759821,167.794914 C218.759821,196.258377 195.650689,219.415883 167.242865,219.415883" id="Fill-32" fill="#FFD7BE"></path>
            </g>
        </g>
    </g>
</svg>