<?xml version="1.0" encoding="UTF-8"?>
<svg width="80px" height="80px" viewBox="0 0 80 80" version="1.1" xmlns="http://www.w3.org/2000/svg" xmlns:xlink="http://www.w3.org/1999/xlink">
    <!-- Generator: Sketch 60.1 (88133) - https://sketch.com -->
    <title>llanto</title>
    <desc>Created with Sketch.</desc>
    <defs>
        <polygon id="path-1" points="0 0.66955814 18.9662558 0.66955814 18.9662558 18.4935116 0 18.4935116"></polygon>
        <polygon id="path-3" points="0.855302326 0.335697674 55.1215814 0.335697674 55.1215814 46.2093023 0.855302326 46.2093023"></polygon>
    </defs>
    <g id="Page-1" stroke="none" stroke-width="1" fill="none" fill-rule="evenodd">
        <g id="3.0-Gmail---Select-Multiple-Conversations-Copy" transform="translate(-632.000000, -634.000000)">
            <g id="llanto" transform="translate(632.000000, 634.000000)">
                <circle id="Oval-Copy-2" fill="#F5F5F5" cx="40" cy="40" r="40"></circle>
                <g id="Group-46" transform="translate(5.000000, 14.000000)">
                    <g id="Group-45">
                        <path d="M69.3467209,38.6154186 C69.2181163,38.4737907 69.0455581,38.3516977 68.8339302,38.2491395 L68.3732326,38.0179767 C67.9711395,37.838907 67.683,37.4921628 67.5055581,36.9777442 C67.3281163,36.4649535 67.2402093,35.5777442 67.2402093,34.3193721 C67.2402093,34.1614651 67.2141628,34.0100698 67.2092791,33.8537907 C67.2174186,33.6958837 67.2564884,33.5477442 67.2564884,33.3882093 C67.2564884,31.6154186 66.6948605,29.9777442 65.7506744,28.6265814 C65.6578837,28.4654186 65.4185814,28.2244884 65.4185814,28.2244884 C63.8899767,26.3035581 61.5620698,25.0484419 58.9167209,25.0484419 C54.3097442,25.0484419 50.5753256,28.7812326 50.5753256,33.3882093 C50.5753256,36.7872791 52.6167209,39.7012326 55.5339302,40.9986744 C55.5339302,40.9986744 59.0876512,42.8723953 62.3174186,42.8723953 C64.323,42.8723953 66.0306744,42.4670465 67.4339302,41.6579767 C68.838814,40.8505349 69.5420698,40.0723953 69.5420698,39.326814 C69.5420698,38.993093 69.4769535,38.7570465 69.3467209,38.6154186" id="Fill-1" fill="#424242"></path>
                        <g id="Group-5" transform="translate(0.000000, 24.378884)">
                            <mask id="mask-2" fill="white">
                                <use xlink:href="#path-1"></use>
                            </mask>
                            <g id="Clip-4"></g>
                            <path d="M0.194860465,14.2365349 C0.325093023,14.094907 0.496023256,13.972814 0.707651163,13.8702558 L1.16834884,13.639093 C1.57044186,13.4600233 1.8602093,13.1132791 2.03602326,12.5988605 C2.21346512,12.0860698 2.30137209,11.1988605 2.30137209,9.94048837 C2.30137209,9.7825814 2.3274186,9.63118605 2.33230233,9.47490698 C2.32416279,9.317 2.28672093,9.16886047 2.28672093,9.00932558 C2.28672093,7.23653488 2.84834884,5.59886047 3.79090698,4.24769767 C3.88369767,4.08653488 4.123,3.84560465 4.123,3.84560465 C5.65160465,1.92467442 7.98113953,0.66955814 10.6264884,0.66955814 C15.2318372,0.66955814 18.9662558,4.40234884 18.9662558,9.00932558 C18.9662558,12.4083953 16.9248605,15.3223488 14.0076512,16.6197907 C14.0076512,16.6197907 10.4555581,18.4935116 7.2257907,18.4935116 C5.2185814,18.4935116 3.51253488,18.0881628 2.10765116,17.279093 C0.702767442,16.4716512 -0.000488372093,15.6935116 -0.000488372093,14.9479302 C-0.000488372093,14.6142093 0.064627907,14.3781628 0.194860465,14.2365349" id="Fill-3" fill="#424242" mask="url(#mask-2)"></path>
                        </g>
                        <path d="M56.6231628,22.9365581 C56.6231628,35.154 46.7189767,45.059814 34.5015349,45.059814 C22.2824651,45.059814 12.3782791,35.154 12.3782791,22.9365581 C12.3782791,10.7191163 22.2824651,0.814930233 34.5015349,0.814930233 C46.7189767,0.814930233 56.6231628,10.7191163 56.6231628,22.9365581" id="Fill-6" fill="#424242"></path>
                        <path d="M34.5008837,1.62823256 C22.7506512,1.62823256 13.1915814,11.1873023 13.1915814,22.9375349 C13.1915814,34.6877674 22.7506512,44.2468372 34.5008837,44.2468372 C46.2494884,44.2468372 55.8085581,34.6877674 55.8085581,22.9375349 C55.8085581,11.1873023 46.2494884,1.62823256 34.5008837,1.62823256 M34.5008837,45.8747442 C21.8536744,45.8747442 11.5636744,35.5847442 11.5636744,22.9375349 C11.5636744,10.2886977 21.8536744,0.000325581395 34.5008837,0.000325581395 C47.148093,0.000325581395 57.4364651,10.2886977 57.4364651,22.9375349 C57.4364651,35.5847442 47.148093,45.8747442 34.5008837,45.8747442" id="Fill-8" fill="#424242"></path>
                        <path d="M9.48304651,29.2256512 L58.9583953,29.2256512 L58.9583953,25.7240233 C58.9583953,12.061 47.8821163,0.986348837 34.2207209,0.986348837 C20.5593256,0.986348837 9.48304651,12.061 9.48304651,25.7240233 L9.48304651,29.2256512 Z" id="Fill-10" fill="#424242"></path>
                        <path d="M10.297,28.4125116 L58.1444419,28.4125116 L58.1444419,25.7248372 C58.1444419,12.5322791 47.4116512,1.79948837 34.2207209,1.79948837 C21.0281628,1.79948837 10.297,12.5322791 10.297,25.7248372 L10.297,28.4125116 Z M59.7723488,30.0404186 L8.66909302,30.0404186 L8.66909302,25.7248372 C8.66909302,11.6336744 20.131186,0.171581395 34.2207209,0.171581395 C48.3102558,0.171581395 59.7723488,11.6336744 59.7723488,25.7248372 L59.7723488,30.0404186 Z" id="Fill-12" fill="#424242"></path>
                        <path d="M56.2305116,25.0302093 C54.3112093,14.7662558 45.3202791,6.993 34.5012093,6.993 C23.6805116,6.993 14.6895814,14.7662558 12.7702791,25.0302093 C10.2112093,25.1946279 8.1812093,27.3011395 8.1812093,29.900907 C8.1812093,32.6097442 10.3772558,34.8041628 13.0844651,34.8041628 L13.1446977,34.8041628 C15.658186,44.2606744 24.2535349,51.2395116 34.5012093,51.2395116 C44.7488837,51.2395116 53.3442326,44.2606744 55.8577209,34.8041628 L55.9179535,34.8041628 C58.6251628,34.8041628 60.8212093,32.6097442 60.8212093,29.900907 C60.8212093,27.3011395 58.7895814,25.1946279 56.2305116,25.0302093" id="Fill-14" fill="#F9FAFB"></path>
                        <path d="M12.7706047,25.0302093 C12.7706047,25.0302093 36.7822326,26.067186 48.9817674,12.4074186 L29.8571163,5.34230233 L13.8092093,15.1048605 L12.7706047,25.0302093 Z" id="Fill-16" fill="#424242"></path>
                        <path d="M13.6727907,24.2297674 C17.9346512,24.2753488 36.8639535,23.6632558 47.5495349,12.7465116 L29.9437209,6.24139535 L14.577907,15.592093 L13.6727907,24.2297674 Z M14.1334884,25.8674419 C13.3504651,25.8674419 12.862093,25.847907 12.7351163,25.8430233 L11.8706977,25.8055814 L13.0411628,14.6202326 L29.7711628,4.44255814 L50.3837209,12.057907 L49.5876744,12.95 C38.8369767,24.99 19.5251163,25.8674419 14.1334884,25.8674419 L14.1334884,25.8674419 Z" id="Fill-18" fill="#424242"></path>
                        <line x1="34.5008837" y1="16.509907" x2="34.5008837" y2="29.3638605" id="Fill-20" fill="#424242"></line>
                        <path d="M34.5008837,31.6443953 C33.2425116,31.6443953 32.221814,30.6236977 32.221814,29.3653256 L32.221814,16.5097442 C32.221814,15.2513721 33.2425116,14.2306744 34.5008837,14.2306744 C35.7592558,14.2306744 36.7799535,15.2513721 36.7799535,16.5097442 L36.7799535,29.3653256 C36.7799535,30.6236977 35.7592558,31.6443953 34.5008837,31.6443953" id="Fill-22" fill="#424242"></path>
                        <line x1="25.6030698" y1="38.489907" x2="44.0179535" y2="38.489907" id="Fill-24" fill="#F9FAFB"></line>
                        <path d="M40.817814,34.5886279 L40.817814,34.5886279 C42.584093,34.5886279 44.0166512,36.021186 44.0166512,37.7874651 L44.0166512,38.489093 L37.6189767,38.489093 L37.6189767,37.7874651 C37.6189767,36.021186 39.0515349,34.5886279 40.817814,34.5886279" id="Fill-26" fill="#F9FAFB"></path>
                        <path d="M20.8528372,26.7917674 C20.5402791,26.7917674 20.2391163,26.6192093 20.0909767,26.3196744 C19.8793488,25.8996744 20.0502791,25.3868837 20.471907,25.1768837 L25.9253953,22.4501395 C26.3470233,22.2401395 26.858186,22.4110698 27.068186,22.8310698 C27.278186,23.2526977 27.1088837,23.7638605 26.6872558,23.9754884 L21.2337674,26.7006047 C21.1116744,26.7624651 20.9814419,26.7917674 20.8528372,26.7917674" id="Fill-28" fill="#424242"></path>
                        <path d="M34.8053023,42.3021395 L34.8053023,42.3021395 C32.9234419,42.3021395 31.3964651,40.7767907 31.3964651,38.8933023 L31.3964651,36.8486512 C31.3964651,34.9667907 32.9234419,33.439814 34.8053023,33.439814 C36.6871628,33.439814 38.2141395,34.9667907 38.2141395,36.8486512 L38.2141395,38.8933023 C38.2141395,40.7767907 36.6871628,42.3021395 34.8053023,42.3021395" id="Fill-30" fill="#424242"></path>
                        <path d="M22.8162558,29.2907674 C22.3832326,31.8628605 21.1769535,31.9149535 20.8562558,34.8565814 C20.5160233,38.0000698 21.8704419,38.1547209 21.5302093,41.2982093 C21.2143953,44.2121628 20.1611395,43.7058837 19.7167209,46.203093 C21.5253256,47.5916977 23.4511395,48.9607674 25.6536977,49.7079767 C25.7643953,46.6491395 26.9885814,46.8184419 26.9885814,43.4698372 C26.9885814,39.9649535 25.6243953,39.9649535 25.6243953,36.4600698 C25.6243953,32.956814 26.9885814,32.956814 26.9885814,29.4535581 L22.8162558,29.2907674 Z" id="Fill-32" fill="#E7E3E3"></path>
                        <path d="M24.940186,30.8813953 C23.646,30.8813953 22.4087907,30.2693023 21.5492558,29.1997674 C21.2546047,28.8334884 21.3115814,28.297907 21.6794884,28.0016279 C22.0457674,27.7069767 22.5813488,27.7655814 22.8776279,28.1318605 C23.4197209,28.805814 24.1522791,29.1769767 24.940186,29.1769767 C25.728093,29.1769767 26.4622791,28.805814 27.0027442,28.1318605 C27.2973953,27.7655814 27.8346047,27.7069767 28.2008837,28.0016279 C28.5687907,28.2962791 28.6257674,28.8334884 28.3311163,29.1997674 C27.4715814,30.2693023 26.236,30.8813953 24.940186,30.8813953" id="Fill-34" fill="#424242"></path>
                        <path d="M48.4844419,26.7917674 C48.3558372,26.7917674 48.2256047,26.7624651 48.1051395,26.7006047 L42.6516512,23.9754884 C42.2283953,23.7638605 42.059093,23.2526977 42.269093,22.8310698 C42.479093,22.4110698 42.9902558,22.2385116 43.4118837,22.4501395 L48.8653721,25.1768837 C49.287,25.3868837 49.4579302,25.8996744 49.2479302,26.3196744 C49.0981628,26.6192093 48.797,26.7917674 48.4844419,26.7917674" id="Fill-36" fill="#424242"></path>
                        <path d="M48.4803721,34.8565814 C48.1613023,31.9149535 46.9533953,31.8628605 46.5203721,29.2907674 L42.3496744,29.4535581 C42.3496744,32.956814 43.7122326,32.956814 43.7122326,36.4600698 C43.7122326,39.9649535 42.3496744,39.9649535 42.3496744,43.4698372 C42.3496744,46.8184419 43.5706047,46.6198372 43.6829302,49.6803023 C45.8854884,48.9314651 47.7543256,47.3833256 49.5629302,45.9963488 C49.1185116,43.4991395 48.1238605,44.2121628 47.8064186,41.2998372 C47.466186,38.1547209 48.8206047,38.0016977 48.4803721,34.8565814" id="Fill-38" fill="#E7E3E3"></path>
                        <path d="M44.397093,30.8813953 C43.1012791,30.8813953 41.8656977,30.2693023 41.0061628,29.1997674 C40.7115116,28.8334884 40.7701163,28.2962791 41.1363953,28.0016279 C41.5043023,27.7069767 42.0398837,27.7655814 42.3345349,28.1318605 C42.875,28.805814 43.609186,29.1769767 44.397093,29.1769767 C45.185,29.1769767 45.9175581,28.805814 46.4612791,28.1318605 C46.7526744,27.7655814 47.2915116,27.7069767 47.6577907,28.0016279 C48.0256977,28.2962791 48.0826744,28.8334884 47.7880233,29.1997674 C46.9284884,30.2693023 45.692907,30.8813953 44.397093,30.8813953" id="Fill-40" fill="#424242"></path>
                        <g id="Group-44" transform="translate(6.511628, 5.844000)">
                            <mask id="mask-4" fill="white">
                                <use xlink:href="#path-3"></use>
                            </mask>
                            <g id="Clip-43"></g>
                            <path d="M27.9892558,1.96360465 C17.7432093,1.96360465 8.94111628,9.26965116 7.05925581,19.335 L6.94204651,19.9568605 L6.31204651,19.9975581 C4.16483721,20.1359302 2.4832093,21.9201163 2.4832093,24.0575581 C2.4832093,26.3122093 4.31786047,28.1468605 6.57251163,28.1468605 L7.19925581,28.1468605 L7.41902326,28.750814 C9.89669767,38.0722093 18.3553023,44.5822093 27.9892558,44.5822093 C37.6232093,44.5822093 46.081814,38.0722093 48.5594884,28.750814 L48.7206512,28.1468605 L49.3457674,28.1468605 C51.6606512,28.1468605 53.4936744,26.3122093 53.4936744,24.0575581 C53.4936744,21.9201163 51.8136744,20.1359302 49.6664651,19.9975581 L49.0348372,19.9568605 L48.9176279,19.335 C47.0373953,9.26965116 38.2336744,1.96360465 27.9892558,1.96360465 M27.9892558,46.2101163 C17.8164651,46.2101163 8.86134884,39.4673256 6.006,29.7405814 C3.09367442,29.4345349 0.855302326,27.0024419 0.855302326,24.0575581 C0.855302326,21.277093 2.88367442,18.9247674 5.57623256,18.4494186 C7.82925581,7.91686047 17.1604186,0.335697674 27.9892558,0.335697674 C38.818093,0.335697674 48.1492558,7.91686047 50.4022791,18.4494186 C53.0948372,18.9247674 55.1215814,21.277093 55.1215814,24.0575581 C55.1215814,27.0203488 52.8571628,29.4622093 49.9708837,29.747093 C47.113907,39.4705814 38.1604186,46.2101163 27.9892558,46.2101163" id="Fill-42" fill="#424242" mask="url(#mask-4)"></path>
                        </g>
                    </g>
                </g>
            </g>
        </g>
    </g>
</svg>