<?xml version="1.0" encoding="UTF-8"?>
<svg width="445px" height="446px" viewBox="0 0 445 446" version="1.1" xmlns="http://www.w3.org/2000/svg" xmlns:xlink="http://www.w3.org/1999/xlink">
    <!-- Generator: Sketch 60.1 (88133) - https://sketch.com -->
    <title>Group 26 Copy</title>
    <desc>Created with Sketch.</desc>
    <defs>
        <polygon id="path-1" points="0.000955719112 0.0765316806 444.868132 0.0765316806 444.868132 445.879792 0.000955719112 445.879792"></polygon>
    </defs>
    <g id="Móvil" stroke="none" stroke-width="1" fill="none" fill-rule="evenodd">
        <g id="Group-26-Copy">
            <g id="Group-3" transform="translate(0.000000, 0.032090)">
                <mask id="mask-2" fill="white">
                    <use xlink:href="#path-1"></use>
                </mask>
                <g id="Clip-2"></g>
                <path d="M0.000955719112,222.977443 C0.000955719112,99.8706811 99.5868872,0.0750950838 222.435022,0.0750950838 C345.283156,0.0750950838 444.869088,99.8706811 444.869088,222.977443 C444.869088,346.084206 345.283156,445.879792 222.435022,445.879792 C99.5868872,445.879792 0.000955719112,346.084206 0.000955719112,222.977443" id="Fill-1" fill="#094699" mask="url(#mask-2)"></path>
            </g>
            <path d="M137.27567,274.080547 C121.907707,274.080547 121.907707,250.23783 137.27567,250.23783 C152.638855,250.73585 152.638855,274.080547 137.27567,274.080547" id="Fill-4" fill="#007EC3"></path>
            <path d="M114.752238,242.456264 C99.3842747,242.456264 99.3842747,218.613547 114.752238,218.613547 C130.115423,218.613547 130.115423,242.456264 114.752238,242.456264" id="Fill-6" fill="#007EC3"></path>
            <path d="M49.1564568,283.971515 C33.7884935,283.971515 33.7884935,260.128798 49.1564568,260.128798 C64.0274462,260.128798 64.0274462,283.971515 49.1564568,283.971515" id="Fill-8" fill="#007EC3"></path>
            <path d="M127.254,312.328977 C111.890815,312.328977 111.890815,288.48626 127.254,288.48626 C142.124989,288.48626 142.621963,312.328977 127.254,312.328977" id="Fill-10" fill="#007EC3"></path>
            <path d="M106.935889,358.19568 C91.5727046,358.19568 91.5727046,334.352963 106.935889,334.352963 C122.303853,334.352963 122.303853,358.19568 106.935889,358.19568" id="Fill-12" fill="#007EC3"></path>
            <path d="M79.06712,311.337725 C63.7039353,311.337725 63.7039353,287.495008 79.06712,287.495008 C93.9381094,287.495008 94.4350833,311.337725 79.06712,311.337725" id="Fill-14" fill="#007EC3"></path>
            <path d="M102.966788,281.20032 C87.5988245,281.20032 87.5988245,257.357603 102.966788,257.357603 C117.837777,257.855623 118.329973,281.20032 102.966788,281.20032" id="Fill-16" fill="#007EC3"></path>
            <path d="M76.6400713,250.845989 C61.272108,250.845989 61.272108,227.003272 76.6400713,227.003272 C92.003256,227.003272 92.003256,250.845989 76.6400713,250.845989" id="Fill-18" fill="#007EC3"></path>
            <path d="M37.2544088,238.701 C21.8864455,238.701 21.8864455,214.858283 37.2544088,214.858283 C52.6223722,214.858283 52.6223722,238.701 37.2544088,238.701" id="Fill-20" fill="#007EC3"></path>
            <path d="M358.036272,359.766838 C351.355796,357.147443 344.50329,354.978182 337.536097,353.268632 C330.243961,351.482463 326.378077,351.712319 322.645994,344.720881 C321.011714,341.670507 320.189795,339.017592 320.830127,335.574549 C322.373614,327.290174 326.225162,319.446356 331.840011,313.16364 C342.921575,300.770599 359.073228,294.372955 370.728222,282.473145 C382.215966,272.689921 382.301981,272.574994 370.885916,282.329485 C322.770237,276.08029 315.291735,248.301297 315.291735,248.301297 C336.489585,237.431049 335.242372,207.224208 335.242372,207.224208 C335.242372,196.181568 326.311176,187.231571 315.291735,187.231571 C304.272294,187.231571 295.341099,196.181568 295.341099,207.224208 L285.941601,207.066183 C285.965494,206.046199 285.43507,198.66688 280.627803,155.334335 C280.0257,149.880056 278.912287,144.856756 277.402251,140.221337 C263.095136,96.1944359 212.65706,87.5652782 212.422908,87.5269689 L205.212008,87.1199332 C202.870496,88.8294833 200.54332,90.6395952 198.220922,92.5406915 C174.007779,112.360938 158.539465,142.510314 158.539465,176.284703 L158.539465,190.210114 L144.084213,202.785124 C141.637572,206.098874 142.63152,210.806123 146.20591,212.841302 L153.354689,216.916448 L153.354689,221.911016 L153.354689,244.297981 L176.540434,244.297981 C183.139675,244.297981 188.486923,249.656487 188.486923,256.269621 C188.486923,262.882754 183.139675,268.24126 176.540434,268.24126 L163.21771,268.24126 C162.988337,268.892517 163.060016,269.644336 163.561769,270.218975 C164.804204,271.62684 167.365531,272.919777 167.910291,273.958915 C180.052702,296.987561 196.299927,314.260242 222.668217,316.467812 C225.941555,316.740766 228.498104,319.403258 228.498104,322.697853 L228.498104,351.760205 C217.550341,352.52639 207.171232,355.409161 197.75262,359.991904 C169.434663,370.225262 144.624195,391.199574 123.521917,422.661042 C153.326017,437.515453 186.895651,445.909966 222.434066,445.909966 C286.964221,445.909966 345.04805,418.346464 385.680448,374.36266 C377.16499,368.616273 367.994865,363.664803 358.036272,359.766838" id="Fill-22" fill="#D8D8D8"></path>
            <path d="M210.844538,83.2545303 C211.116918,83.07735 211.389298,82.8905924 211.666457,82.7134122 C213.477544,81.5593461 215.302968,80.4771099 217.147506,79.4475489 C217.496343,79.2560027 217.840402,79.0644565 218.184461,78.8776989 C220.043335,77.8720812 221.921323,76.9239273 223.832761,76.052392 C224.119477,75.9183096 224.41575,75.7985932 224.702465,75.6692995 C226.719033,74.7738209 228.764272,73.9310175 230.852518,73.1887759 C230.857297,73.1887759 230.857297,73.1887759 230.862075,73.1839872 C232.945543,72.4465342 235.081575,71.809643 237.251057,71.2302156 C237.566445,71.1440198 237.881832,71.0530354 238.197219,70.9716282 C240.285466,70.4400874 242.421498,69.9899538 244.605316,69.6068613 C245.011497,69.5398202 245.422456,69.472779 245.833415,69.4057378 C248.036348,69.0513773 250.287066,68.7688466 252.604685,68.5725117 C252.958301,68.5437798 253.316696,68.5246251 253.670312,68.4958932 C256.121731,68.3187129 258.620937,68.2037852 261.210936,68.2037852 L287.851606,68.2037852 C288.506273,68.2037852 289.151384,68.2468831 289.806051,68.2612491 C290.604077,68.2468831 291.392545,68.2037852 292.190571,68.2037852 C306.851302,68.2037852 320.905151,70.8088139 333.917267,75.5783151 C339.489109,77.6278597 344.874587,80.0700742 350.03547,82.8810151 C353.47128,84.7485909 356.811518,86.7837696 360.041849,88.9721852 C369.723283,95.527855 378.41077,103.448292 385.831929,112.455753 C389.540119,116.961878 392.932922,121.736168 395.972109,126.749891 C407.120572,145.138329 413.538226,166.7208 413.538226,189.80691 C413.538226,192.129408 413.476104,194.432751 413.347082,196.721729 C413.332747,196.994682 413.299296,197.262847 413.280182,197.531011 C413.15116,199.542247 412.998245,201.543905 412.778429,203.52162 C412.658965,204.584701 412.477378,205.628628 412.33402,206.677344 C412.171548,207.860142 412.037747,209.047728 411.837046,210.211372 C411.612452,211.547407 411.325736,212.85471 411.053356,214.176379 C410.881327,215.043125 410.737969,215.919449 410.542047,216.776619 C410.183652,218.356875 409.763136,219.9084 409.347398,221.464713 C409.189704,222.04414 409.060682,222.633145 408.89821,223.212572 C408.429908,224.864658 407.894705,226.488013 407.359502,228.111367 C407.201808,228.575867 407.077565,229.045155 406.919871,229.504866 C406.293875,231.314978 405.610536,233.101146 404.903304,234.872949 C404.802953,235.121959 404.716939,235.385335 404.616588,235.634345 C403.86157,237.492344 403.049209,239.32161 402.203398,241.131722 C402.131719,241.289748 402.069597,241.452562 401.993139,241.610588 C401.099542,243.506895 400.15338,245.374471 399.164211,247.218104 C399.130761,247.280356 399.102089,247.347397 399.068639,247.40965 C391.891188,260.736479 382.300547,272.574036 370.889261,282.333316 C322.768804,276.08412 315.290301,248.30034 315.290301,248.30034 C336.488151,237.430091 335.240938,207.223251 335.240938,207.223251 C335.240938,196.185399 326.314521,187.230613 315.290301,187.230613 C304.275639,187.230613 295.344444,196.185399 295.344444,207.223251 L285.940168,207.065225 C285.968839,206.045241 285.433636,198.665923 280.631148,155.333377 C280.024266,149.883887 278.910853,144.855798 277.405596,140.220379 C263.093702,96.1982668 212.655626,87.5643204 212.421475,87.5260112 L205.210574,87.1237641 C205.215353,87.1237641 205.215353,87.1237641 205.215353,87.1189755 C207.079005,85.7589972 208.952214,84.4804261 210.844538,83.2545303" id="Fill-24" fill="#9B9B9C"></path>
        </g>
    </g>
</svg>